<?xml version="1.0" standalone="no"?>
<!DOCTYPE svg PUBLIC "-//W3C//DTD SVG 20010904//EN"
 "http://www.w3.org/TR/2001/REC-SVG-20010904/DTD/svg10.dtd">
<svg version="1.0" xmlns="http://www.w3.org/2000/svg"
 width="512.000000pt" height="512.000000pt" viewBox="0 0 512.000000 512.000000"
 preserveAspectRatio="xMidYMid meet">
<metadata>
Created by potrace 1.14, written by Peter Selinger 2001-2017
</metadata>
<g transform="translate(0.000000,512.000000) scale(0.100000,-0.100000)"
fill="#000000" stroke="none">
<path d="M1661 4815 c-156 -18 -181 -27 -225 -75 -50 -56 -70 -101 -96 -215
-12 -55 -30 -129 -40 -165 -10 -36 -37 -144 -60 -240 -23 -96 -45 -178 -49
-182 -3 -4 -37 4 -76 18 -38 14 -126 37 -195 51 -106 23 -150 27 -290 27 -105
0 -178 -4 -201 -12 -49 -17 -84 -56 -116 -132 l-28 -65 1 -230 c3 -453 84
-1042 210 -1525 20 -74 42 -145 50 -157 20 -31 78 -59 149 -72 32 -6 61 -11
64 -11 3 0 -27 -19 -66 -41 -161 -90 -224 -232 -224 -509 0 -217 40 -372 112
-434 82 -69 274 -92 392 -47 69 27 133 74 165 121 13 19 27 36 31 38 5 1 33
-55 64 -125 204 -470 204 -470 284 -492 49 -14 366 -14 415 -1 53 15 72 40
144 196 l66 141 351 6 c271 4 355 3 365 -7 7 -7 45 -77 85 -157 96 -189 84
-183 343 -187 309 -6 306 -8 431 303 47 116 92 234 101 262 10 29 20 53 24 53
3 0 15 -16 27 -35 46 -78 176 -126 341 -127 115 0 169 13 214 53 72 63 116
223 116 424 0 318 -80 484 -268 555 l-45 17 71 7 c83 8 128 34 155 88 34 70
145 674 191 1048 46 369 62 701 38 811 -18 79 -68 158 -117 183 -35 18 -58 21
-170 21 -139 -1 -306 -27 -527 -85 l-107 -27 -21 81 c-12 44 -40 146 -62 226
-22 80 -56 204 -75 275 -42 159 -69 221 -120 272 -50 50 -100 64 -259 71 -183
7 -209 1 -269 -62 -59 -63 -148 -209 -239 -393 -62 -125 -149 -335 -157 -378
-4 -17 -12 -20 -63 -20 l-60 0 -58 140 c-140 333 -266 598 -315 663 -13 17
-38 39 -55 48 -43 22 -195 26 -347 9z m937 -1758 c1 -338 -1 -506 -8 -502 -5
3 -50 6 -100 6 l-90 0 0 505 0 504 98 -2 97 -3 3 -508z m-1008 -3 c113 -44
195 -119 247 -226 89 -184 60 -377 -80 -525 -90 -96 -204 -143 -342 -143 -186
0 -342 96 -422 258 -38 76 -38 76 -37 201 0 92 5 137 17 169 44 115 149 222
257 263 103 39 265 40 360 3z m2136 25 c187 -34 328 -184 356 -379 43 -293
-161 -530 -456 -530 -151 0 -261 44 -351 142 -274 296 -68 768 341 777 28 1
77 -4 110 -10z m284 -1295 c0 -3 -15 -33 -34 -67 -19 -34 -41 -88 -51 -121
-16 -59 -58 -262 -70 -348 l-7 -48 -494 0 -494 0 0 138 c0 75 -3 147 -6 160
l-6 22 -349 0 -349 0 0 -122 c0 -68 -3 -140 -6 -160 l-7 -38 -498 0 -497 0
-17 73 c-9 39 -34 156 -55 259 -22 103 -44 196 -50 207 -5 11 -10 22 -10 26 0
3 62 4 137 3 l138 -3 5 -185 5 -185 305 0 305 0 3 168 c2 150 4 167 20 167 9
0 268 1 575 3 378 2 563 0 573 -8 10 -8 14 -47 16 -170 l3 -160 289 -3 c225
-2 291 1 298 10 4 7 8 93 8 190 l0 177 43 5 c91 13 277 19 277 10z"/>
<path d="M1372 2908 c-67 -10 -103 -29 -154 -80 -60 -60 -82 -117 -83 -213 0
-68 4 -89 28 -137 52 -107 152 -168 271 -168 74 0 119 16 176 61 75 59 110
137 110 244 0 95 -19 142 -79 208 -67 72 -161 102 -269 85z"/>
<path d="M3529 2913 c-81 -12 -185 -115 -210 -206 -17 -65 -6 -167 25 -231 82
-167 303 -208 442 -82 77 68 99 121 99 236 0 86 -3 100 -27 142 -68 114 -183
163 -329 141z"/>
</g>
</svg>
